<svg version="1.1" viewBox="0.0 0.0 960.0 720.0" fill="none" stroke="none" stroke-linecap="square" stroke-miterlimit="10" xmlns:xlink="http://www.w3.org/1999/xlink" xmlns="http://www.w3.org/2000/svg"><clipPath id="p.0"><path d="m0 0l960.0 0l0 720.0l-960.0 0l0 -720.0z" clip-rule="nonzero"/></clipPath><g clip-path="url(#p.0)"><path fill="#000000" fill-opacity="0.0" d="m0 0l960.0 0l0 720.0l-960.0 0z" fill-rule="evenodd"/><defs><linearGradient id="p.1" gradientUnits="userSpaceOnUse" gradientTransform="matrix(32.76532899970784 0.0 0.0 32.76532899970784 0.0 0.0)" spreadMethod="pad" x1="-8.518980980457057" y1="10.987228727207492" x2="14.649564038784742" y2="34.155856354895356"><stop offset="0.0" stop-color="#006ed5"/><stop offset="1.0" stop-color="#001223"/></linearGradient></defs><path fill="url(#p.1)" d="m8.6064205 135.21216l0 0c0 -34.763344 28.181261 -62.944603 62.944603 -62.944603l816.89703 0c16.693909 0 32.704163 6.631645 44.508545 18.43605c11.804382 11.804405 18.436035 27.814606 18.436035 44.508553l0 449.57806c0 34.763306 -28.181213 62.94458 -62.94458 62.94458l-816.89703 0l0 0c-34.763344 0 -62.944603 -28.181274 -62.944603 -62.94458z" fill-rule="evenodd"/><path fill="#ffffff" d="m831.81665 205.20883l0 157.60797l-5.6289673 0c-11.257935 0 -22.51593 -11.257721 -22.51593 -22.515442l0 -115.39154c0 -11.257706 11.257996 -19.700989 22.51593 -19.700989zm-323.66632 -30.95871c101.321655 0 182.94183 84.43283 182.94183 185.75226c0 101.3194 -81.62018 182.9378 -182.94183 182.9378c-101.321625 0 -185.75635 -81.61841 -185.75635 -182.9378c0 -101.31943 84.43472 -185.75226 185.75635 -185.75226zm-398.2481 -9.848282c-10.557663 0 -21.110893 7.0338593 -21.110893 21.105988l0 115.391556c0 33.773132 28.144897 61.91742 61.918777 61.91742l5.6289825 0l0 202.63882c0 12.667114 10.553223 18.996277 21.110886 18.996277c10.553238 0 21.10646 -6.3291626 21.10646 -18.996277l0 -202.63882l5.6289825 0c33.77388 0 61.918777 -28.144287 61.918777 -61.91742l0 -115.391556c0 -14.072128 -10.553223 -21.105988 -21.10646 -21.105988c-10.557663 0 -21.110886 7.0338593 -21.110886 21.105988l0 115.391556c0 11.257721 -8.443466 19.700989 -19.701431 19.700989l-5.6289825 0l0 -135.09254c0 -14.072128 -10.553223 -21.105988 -21.10646 -21.105988c-10.557663 0 -21.110886 7.0338593 -21.110886 21.105988l0 135.09254l-5.6289825 0c-11.257965 0 -19.701431 -8.443268 -19.701431 -19.700989l0 -115.391556c0 -14.072128 -10.553223 -21.105988 -21.106453 -21.105988zm716.28546 -1.4094391c-25.330383 0 -47.846313 16.886581 -59.104248 39.401993c-2.8145142 2.8144379 -2.8145142 8.443283 -2.8145142 14.072144l0 123.83482c0 33.773132 28.144897 61.91742 61.918762 61.91742l5.6289673 0l0 163.23685c0 12.667114 9.852966 18.996277 19.701477 18.996277c9.852905 0 19.701416 -6.3291626 19.701416 -18.996277l0 -379.9478c0 -11.257706 -8.443481 -22.515427 -19.701416 -22.515427zm-318.03735 -28.144272c-123.837555 0 -225.15921 101.31941 -225.15921 225.15425c0 123.83481 101.321655 225.15424 225.15921 225.15424c123.837585 0 225.15918 -101.31943 225.15918 -225.15424c0 -123.83484 -101.321594 -225.15425 -225.15918 -225.15425z" fill-rule="evenodd"/></g></svg>